<?xml version="1.0" encoding="UTF-8" standalone="no"?>
<!-- Created with Inkscape (http://www.inkscape.org/) -->

<svg
   xmlns:dc="http://purl.org/dc/elements/1.1/"
   xmlns:cc="http://creativecommons.org/ns#"
   xmlns:rdf="http://www.w3.org/1999/02/22-rdf-syntax-ns#"
   xmlns:svg="http://www.w3.org/2000/svg"
   xmlns="http://www.w3.org/2000/svg"
   xmlns:sodipodi="http://sodipodi.sourceforge.net/DTD/sodipodi-0.dtd"
   xmlns:inkscape="http://www.inkscape.org/namespaces/inkscape"
   width="1024px"
   height="1024px"
   viewBox="0 0 1024 1024"
   version="1.1"
   id="SVGRoot"
   inkscape:version="0.92.1 r15371"
   sodipodi:docname="nw_line_theme_002.svg">
  <sodipodi:namedview
     id="base"
     pagecolor="#ffffff"
     bordercolor="#666666"
     borderopacity="1.0"
     inkscape:pageopacity="0.0"
     inkscape:pageshadow="2"
     inkscape:zoom="0.70710678"
     inkscape:cx="509.82518"
     inkscape:cy="432.75566"
     inkscape:document-units="px"
     inkscape:current-layer="layer1"
     showgrid="false"
     inkscape:window-width="1920"
     inkscape:window-height="1001"
     inkscape:window-x="-9"
     inkscape:window-y="-9"
     inkscape:window-maximized="1"
     showguides="true"
     inkscape:guide-bbox="true">
    <sodipodi:guide
       position="0,804.68752"
       orientation="1,0"
       id="guide5052"
       inkscape:locked="false" />
    <sodipodi:guide
       position="1023.8906,643.46717"
       orientation="1,0"
       id="guide5054"
       inkscape:locked="false" />
    <sodipodi:guide
       position="511.94531,576.99913"
       orientation="1,0"
       id="guide5056"
       inkscape:locked="false" />
    <sodipodi:guide
       position="371.93817,0"
       orientation="0,1"
       id="guide5058"
       inkscape:locked="false" />
    <sodipodi:guide
       position="360.62446,1023.8906"
       orientation="0,1"
       id="guide5060"
       inkscape:locked="false" />
    <sodipodi:guide
       position="386.0803,511.94531"
       orientation="0,1"
       id="guide5062"
       inkscape:locked="false" />
    <sodipodi:guide
       position="386.0803,511.94531"
       orientation="1,0"
       id="guide5064"
       inkscape:locked="false" />
    <sodipodi:guide
       position="130.10765,639.22453"
       orientation="1,0"
       id="guide5066"
       inkscape:locked="false" />
    <sodipodi:guide
       position="260.2153,615.1829"
       orientation="1,0"
       id="guide5068"
       inkscape:locked="false" />
    <sodipodi:guide
       position="386.0803,400.22244"
       orientation="0,1"
       id="guide5070"
       inkscape:locked="false" />
    <sodipodi:guide
       position="93.338095,623.66818"
       orientation="0,1"
       id="guide5072"
       inkscape:locked="false" />
  </sodipodi:namedview>
  <defs
     id="defs4493">
    <inkscape:path-effect
       effect="bspline"
       id="path-effect5084"
       is_visible="true"
       weight="33.333333"
       steps="2"
       helper_size="0"
       apply_no_weight="true"
       apply_with_weight="true"
       only_selected="false" />
    <inkscape:path-effect
       effect="bspline"
       id="path-effect5080"
       is_visible="true"
       weight="33.333333"
       steps="2"
       helper_size="0"
       apply_no_weight="true"
       apply_with_weight="true"
       only_selected="false" />
    <inkscape:path-effect
       effect="bspline"
       id="path-effect5076"
       is_visible="true"
       weight="33.333333"
       steps="2"
       helper_size="0"
       apply_no_weight="true"
       apply_with_weight="true"
       only_selected="false" />
    <inkscape:path-effect
       effect="bspline"
       id="path-effect5080-2"
       is_visible="true"
       weight="33.333333"
       steps="2"
       helper_size="0"
       apply_no_weight="true"
       apply_with_weight="true"
       only_selected="false" />
    <inkscape:path-effect
       effect="bspline"
       id="path-effect5084-4"
       is_visible="true"
       weight="33.333333"
       steps="2"
       helper_size="0"
       apply_no_weight="true"
       apply_with_weight="true"
       only_selected="false" />
    <inkscape:path-effect
       effect="bspline"
       id="path-effect5080-2-2"
       is_visible="true"
       weight="33.333333"
       steps="2"
       helper_size="0"
       apply_no_weight="true"
       apply_with_weight="true"
       only_selected="false" />
    <inkscape:path-effect
       effect="bspline"
       id="path-effect5084-4-4"
       is_visible="true"
       weight="33.333333"
       steps="2"
       helper_size="0"
       apply_no_weight="true"
       apply_with_weight="true"
       only_selected="false" />
    <inkscape:path-effect
       effect="bspline"
       id="path-effect5080-2-2-0"
       is_visible="true"
       weight="33.333333"
       steps="2"
       helper_size="0"
       apply_no_weight="true"
       apply_with_weight="true"
       only_selected="false" />
  </defs>
  <metadata
     id="metadata4496">
    <rdf:RDF>
      <cc:Work
         rdf:about="">
        <dc:format>image/svg+xml</dc:format>
        <dc:type
           rdf:resource="http://purl.org/dc/dcmitype/StillImage" />
        <dc:title></dc:title>
      </cc:Work>
    </rdf:RDF>
  </metadata>
  <g
     id="layer1"
     inkscape:groupmode="layer"
     inkscape:label="Layer 1">
    <rect
       style="opacity:1;fill:#86888d;fill-opacity:0;stroke-width:1.94100002;stroke:#000000;stroke-opacity:1;stroke-miterlimit:4;stroke-dasharray:none"
       id="rect5134"
       width="1023.8906"
       height="1023.8906"
       x="0"
       y="0.1094" />
    <path
       style="fill:none;stroke:#000000;stroke-width:1.28858769px;stroke-linecap:butt;stroke-linejoin:miter;stroke-opacity:1"
       d="M 0,306.76641 C 72.086978,186.20815 144.17308,65.651354 216.25869,89.433685 288.34429,113.21602 360.43008,281.33551 431.34163,304.41032 502.25318,327.48513 571.98836,205.51607 641.72298,83.547979"
       id="path5078"
       inkscape:connector-curvature="0"
       inkscape:path-effect="#path-effect5080"
       inkscape:original-d="M 0,306.76641 C 72.08776,186.20862 144.17386,65.651819 216.2583,-54.903961 288.34608,113.21525 360.43188,281.33474 432.51658,449.45667 502.25398,327.48559 571.98918,205.51654 641.72298,83.547979"
       sodipodi:nodetypes="cccc" />
    <path
       style="fill:none;stroke:#000000;stroke-width:1.24744141px;stroke-linecap:butt;stroke-linejoin:miter;stroke-opacity:1"
       d="M 641.72298,83.547979 C 709.26911,200.82527 776.81501,318.10215 844.36183,307.03308 911.90866,295.96401 979.45454,156.55053 1045.899,157.25763 c 66.4445,0.70711 130.9831,139.79912 197.1321,151.00323 66.1491,11.20411 130.6876,-106.02396 196.0304,-224.712881"
       id="path5082"
       inkscape:connector-curvature="0"
       inkscape:path-effect="#path-effect5084"
       inkscape:original-d="M 641.72298,83.547979 C 709.27071,200.82435 776.81661,318.10123 844.36152,435.38011 911.90954,295.96444 979.45544,156.55097 1047,17.137895 1112.3452,157.96395 1176.8837,297.05599 1243.0308,439.61904 1309.181,319.46541 1373.7195,202.23733 1439.0615,83.547979"
       sodipodi:nodetypes="ccccc" />
    <path
       style="fill:none;stroke:#000000;stroke-width:0.91682863px;stroke-linecap:butt;stroke-linejoin:miter;stroke-opacity:1"
       d="m 0,899.77594 c 51.289801,-85.77706 102.57898,-171.55309 153.86781,-154.63199 51.28882,16.9211 102.57778,136.53793 153.03126,152.95563 50.45349,16.4177 100.06999,-70.36314 149.68609,-157.1433"
       id="path5078-4"
       inkscape:connector-curvature="0"
       inkscape:path-effect="#path-effect5080-2"
       inkscape:original-d="M 0,899.77594 C 51.290358,813.99921 102.57954,728.22318 153.86753,642.44788 205.1579,762.06451 256.44687,881.68133 307.73505,1001.2999 357.35313,914.51761 406.96964,827.73677 456.58516,740.95628"
       sodipodi:nodetypes="cccc" />
    <path
       style="fill:none;stroke:#000000;stroke-width:0.88755316px;stroke-linecap:butt;stroke-linejoin:miter;stroke-opacity:1"
       d="m 456.58516,740.95628 c 48.059,83.44265 96.11783,166.88502 144.17731,159.00939 48.05948,-7.87563 96.1183,-107.06817 143.39348,-106.56506 47.27517,0.50311 93.19428,99.46691 140.25926,107.43862 47.06498,7.97171 92.98407,-75.43592 139.47539,-159.88295"
       id="path5082-9"
       inkscape:connector-curvature="0"
       inkscape:path-effect="#path-effect5084-4"
       inkscape:original-d="m 456.58516,740.95628 c 48.06013,83.442 96.11896,166.88437 144.17709,250.32812 48.06034,-99.19405 96.11917,-198.38658 144.17704,-297.57882 46.49304,100.19758 92.41211,199.1614 139.47569,300.59482 47.06579,-85.48914 92.98486,-168.89678 139.47562,-253.34412"
       sodipodi:nodetypes="ccccc" />
    <path
       style="fill:none;stroke:#000000;stroke-width:0.91682863px;stroke-linecap:butt;stroke-linejoin:miter;stroke-opacity:1"
       d="M -19.999953,782.59724 C 31.289852,696.82016 82.579028,611.04413 133.86785,627.96523 c 51.28881,16.92111 102.57777,136.53796 153.03126,152.95567 50.45348,16.41771 100.07,-70.36318 149.68609,-157.14334"
       id="path5078-4-6"
       inkscape:connector-curvature="0"
       inkscape:path-effect="#path-effect5080-2-2"
       inkscape:original-d="M -19.999953,782.59724 C 31.290405,696.82049 82.57958,611.04446 133.86757,525.26916 185.15794,644.88579 236.44691,764.50264 287.73509,884.12124 337.35317,797.33894 386.96968,710.55805 436.5852,623.77756"
       sodipodi:nodetypes="cccc" />
    <path
       style="fill:none;stroke:#000000;stroke-width:0.88755316px;stroke-linecap:butt;stroke-linejoin:miter;stroke-opacity:1"
       d="m 436.5852,623.77756 c 48.05899,83.44266 96.11782,166.88504 144.17731,159.00941 48.05949,-7.87563 96.11831,-107.06818 143.39348,-106.56507 47.27517,0.5031 93.19426,99.46689 140.25925,107.43861 47.065,7.97172 92.98407,-75.43592 139.47536,-159.88295"
       id="path5082-9-6"
       inkscape:connector-curvature="0"
       inkscape:path-effect="#path-effect5084-4-4"
       inkscape:original-d="m 436.5852,623.77756 c 48.06013,83.442 96.11896,166.88438 144.17709,250.32818 48.06034,-99.1941 96.11917,-198.38664 144.17704,-297.57888 46.49304,100.19758 92.41211,199.16138 139.47569,300.59488 47.06579,-85.4892 92.98486,-168.89684 139.47558,-253.34418"
       sodipodi:nodetypes="ccccc" />
    <path
       style="fill:none;stroke:#000000;stroke-width:0.91682863px;stroke-linecap:butt;stroke-linejoin:miter;stroke-opacity:1"
       d="m 1003.8906,623.77756 c 51.2898,-85.77706 102.579,-171.5531 153.8678,-154.632 51.2888,16.92111 102.5777,136.53794 153.0312,152.95565 50.4535,16.41771 100.07,-70.36318 149.6861,-157.14333"
       id="path5078-4-6-6"
       inkscape:connector-curvature="0"
       inkscape:path-effect="#path-effect5080-2-2-0"
       inkscape:original-d="m 1003.8906,623.77756 c 51.2903,-85.77675 102.5795,-171.55278 153.8675,-257.32808 51.2904,119.61663 102.5793,239.23348 153.8675,358.85208 49.6181,-86.7823 99.2346,-173.56319 148.8501,-260.34368"
       sodipodi:nodetypes="cccc" />
    <path
       style="opacity:1;fill:#ff8800;fill-opacity:0.63043482;stroke:none;stroke-width:2.74498844;stroke-miterlimit:4;stroke-dasharray:none;stroke-opacity:1"
       d="M 0.99113835,886.01443 V 750.01508 L 7.622472,739.28977 c 40.19347,-65.00759 69.799599,-98.38928 96.755948,-109.0949 6.14043,-2.43864 9.69747,-2.90925 18.23508,-2.41257 23.58576,1.37211 40.69136,16.38765 84.62857,74.28819 39.85719,52.5239 53.64272,67.10259 72.20663,76.36111 9.30101,4.63876 11.61658,5.20872 20.83289,5.12777 9.06616,-0.0796 11.74909,-0.77188 21.35572,-5.5101 8.97902,-4.42867 13.85102,-8.28254 26.65894,-21.08794 22.33294,-22.32851 43.13487,-52.19659 74.79645,-107.39516 6.97771,-12.16488 13.05566,-22.11796 13.50655,-22.11796 0.45091,0 6.64553,10.04979 13.76584,22.33288 32.3893,55.874 52.87907,85.31267 74.59217,107.17019 12.69359,12.77801 17.55008,16.64491 26.39037,21.01285 19.09566,9.43505 33.5767,8.29364 53.05847,-4.1821 4.86734,-3.11697 22.39514,-19.58841 42.88064,-40.29634 19.05652,-19.26345 38.23122,-37.87397 42.61045,-41.3567 18.6664,-14.84513 34.91019,-18.12473 51.18744,-10.33467 13.08944,6.26441 26.86388,18.42637 53.23556,47.00362 30.52338,33.07619 43.04273,44.42068 56.24539,50.96713 8.81699,4.37185 11.6173,5.07679 20.1669,5.07679 8.64483,0 11.34311,-0.69698 20.874,-5.3919 8.8121,-4.34083 13.7026,-8.17196 25.08794,-19.65341 20.70349,-20.87825 38.14639,-46.44128 68.59551,-100.52854 8.75764,-15.55635 20.60607,-36.23922 26.32987,-45.96194 l 10.4069,-17.67767 0.013,213.1927 0.014,213.1927 H 511.52223 0.99113835 Z"
       id="path5158"
       inkscape:connector-curvature="0" />
    <path
       style="opacity:1;fill:#2457be;fill-opacity:0.63043481;stroke:none;stroke-width:2.74498844;stroke-miterlimit:4;stroke-dasharray:none;stroke-opacity:1"
       d="M 0.99113835,961.01026 V 900.00672 L 16.037966,875.09678 C 80.702063,768.04573 117.1891,734.34385 154.87218,746.86016 c 15.90233,5.2819 36.41957,25.06483 65.3355,62.99713 43.99508,57.71336 62.42849,77.79258 78.75383,85.7853 10.41267,5.09795 25.0089,6.20644 35.56334,2.70081 9.92019,-3.29494 24.54641,-14.01232 36.99024,-27.10461 20.69111,-21.76933 38.91302,-48.76864 77.06876,-114.19237 l 8.13253,-13.94447 6.36108,11.11604 c 50.4554,88.17145 81.96014,128.35527 111.4848,142.19723 17.39344,8.15453 32.43226,6.02878 52.52719,-7.42473 3.71924,-2.49004 23.30856,-21.26073 43.53181,-41.71267 38.56542,-39.00152 48.15355,-46.80114 62.74898,-51.04415 18.46571,-5.36812 33.51794,1.73423 60.36896,28.48495 10.15636,10.11844 25.69756,26.25332 34.53599,35.85529 19.03134,20.67545 31.43364,31.04542 44.36967,37.09892 8.45211,3.95521 10.59989,4.38143 19.75034,3.91935 30.58324,-1.54438 61.18519,-34.42849 107.06085,-115.04495 7.96725,-14.00071 16.29695,-28.63782 18.51045,-32.52691 l 4.0244,-7.07107 0.031,137.53227 0.031,137.53228 H 511.52223 0.99113835 Z"
       id="path5160"
       inkscape:connector-curvature="0" />
  </g>
</svg>
